<?xml version="1.0" encoding="utf-8"?><svg xml:space="preserve" viewBox="0 0 100 100" y="0" x="0" xmlns="http://www.w3.org/2000/svg" id="Layer_1" version="1.1" width="496px" height="496px" xmlns:xlink="http://www.w3.org/1999/xlink" style="width:100%;height:100%;background-size:initial;background-repeat-y:initial;background-repeat-x:initial;background-position-y:initial;background-position-x:initial;background-origin:initial;background-color:initial;background-clip:initial;background-attachment:initial;animation-play-state:paused" ><g class="ldl-scale" style="transform-origin:50% 50%;transform:rotate(0deg) scale(0.8, 0.8);animation-play-state:paused" ><g style="animation-play-state:paused" ><path stroke-miterlimit="10" fill="#e0e0e0" stroke-width="3" stroke="#333" d="M55.2 17c-1.6-1.2-1.9-3.5-.3-4.8.4-.4.9-.7 1.3-1-.2-.2-.4-.4-.6-.5-3.1-2-8.5.7-12 6 0 .1-.1.1-.1.2-.1.1-.2.3-.3.4-.1.2-.2.3-.3.5-.1.2-.2.3-.3.5-.1.2-.2.3-.2.5-.1.2-.2.3-.2.5-.1.1-.1.3-.2.4-.1.1-.1.2-.2.4 0 .1-.1.2-.1.3 0 .1-.1.2-.1.3-.1.3-.1.5-.2.8-.1.3-.1.5-.1.8 0 .3-.1.5-.1.8V24.3c0 5 4.1 9 9.1 8.9 4.5-.1 8.2-3.7 8.6-8.2.2-3.4-1.3-6.3-3.7-8z" style="stroke:rgb(51, 51, 51);fill:rgb(224, 224, 224);animation-play-state:paused" ></path>
<path stroke-width="3" stroke="#333" fill="#e0e0e0" stroke-miterlimit="10" stroke-linecap="round" d="M54.5 25.3h7.8c3.3 0 5.9 2.6 5.9 5.9v0c0 3.3-2.6 5.9-5.9 5.9H37.7c-3.3 0-5.9-2.6-5.9-5.9v0c0-3.3 2.6-5.9 5.9-5.9h7.7" style="stroke:rgb(51, 51, 51);fill:rgb(224, 224, 224);animation-play-state:paused" ></path>
<path stroke-width="3" stroke="#333" fill="#e0e0e0" stroke-miterlimit="10" stroke-linecap="round" d="M62.3 35h5.5c3.1 0 5.6 2.5 5.6 5.6v.5c0 3.1-2.5 5.6-5.6 5.6H32.2c-3.1 0-5.6-2.5-5.6-5.6v-.5c0-3.1 2.5-5.6 5.6-5.6H50" style="stroke:rgb(51, 51, 51);fill:rgb(224, 224, 224);animation-play-state:paused" ></path></g>
<g style="animation-play-state:paused" ><path stroke-width="3" stroke="#333" fill="#f7b26a" stroke-miterlimit="10" d="M65.6 64.2H34.4c-1.4 0-2.7-1-3-2.4l-2.7-11.2c-.5-2 1-3.9 3-3.9h36.5c2 0 3.5 1.9 3 3.9l-2.7 11.2c-.2 1.4-1.5 2.4-2.9 2.4z" style="stroke:rgb(51, 51, 51);fill:rgb(247, 178, 106);animation-play-state:paused" ></path>
<path stroke-width="3" stroke="#333" fill="#f7b26a" stroke-miterlimit="10" d="M65.6 64.2H34.4l2.9 23c.2 1.6 1.5 2.8 3.1 2.8h19.3c1.6 0 2.9-1.2 3.1-2.8l2.8-23z" style="stroke:rgb(51, 51, 51);fill:rgb(247, 178, 106);animation-play-state:paused" ></path>
<path d="M63.3 82.8l1.4-11.1H35.3l1.4 11.1z" stroke-miterlimit="10" stroke="#333" stroke-linecap="round" stroke-width="3" fill="#fff" style="stroke:rgb(51, 51, 51);fill:rgb(255, 255, 255);animation-play-state:paused" ></path></g>
<path stroke-miterlimit="10" stroke="#e15c64" stroke-linecap="round" stroke-width="2" fill="none" d="M34.3 41.3c-1.6.9-3.2 1.4-4.7.3" style="stroke:rgb(225, 92, 100);animation-play-state:paused" ></path>
<path stroke-linecap="round" stroke-width="2" fill="none" stroke="#77a4bd" stroke-miterlimit="10" d="M57.9 32.7c-1.9.3-3.5.1-4.5-1.4" style="stroke:rgb(119, 164, 189);animation-play-state:paused" ></path>
<path stroke-linecap="round" stroke-width="2" fill="none" stroke="#f5e169" stroke-miterlimit="10" d="M44.9 37.7c.3-1.9.9-3.4 2.7-3.9" style="stroke:rgb(245, 225, 105);animation-play-state:paused" ></path>
<path stroke-miterlimit="10" stroke-width="2" stroke="#849b87" fill="none" stroke-linecap="round" d="M37.9 28.7c1.8.6 3.1 1.6 3.3 3.4" style="stroke:rgb(132, 155, 135);animation-play-state:paused" ></path>
<path stroke-miterlimit="10" stroke="#e15c64" stroke-linecap="round" stroke-width="2" fill="none" d="M52.2 43.8c.2-1.9.8-3.4 2.5-4" style="stroke:rgb(225, 92, 100);animation-play-state:paused" ></path>
<path stroke-miterlimit="10" stroke="#e15c64" stroke-linecap="round" stroke-width="2" fill="none" d="M48.3 18.3c1.9.3 3.4 1 3.8 2.7" style="stroke:rgb(225, 92, 100);animation-play-state:paused" ></path>
<path stroke-linecap="round" stroke-width="2" fill="none" stroke="#f5e169" stroke-miterlimit="10" d="M56.3 23c1.1 1.5 1.8 3 .9 4.6" style="stroke:rgb(245, 225, 105);animation-play-state:paused" ></path>
<path stroke-miterlimit="10" stroke-width="2" stroke="#849b87" fill="none" stroke-linecap="round" d="M42.3 24.1c1-1.6 2.3-2.7 4.1-2.4" style="stroke:rgb(132, 155, 135);animation-play-state:paused" ></path>
<path stroke-linecap="round" stroke-width="2" fill="none" stroke="#77a4bd" stroke-miterlimit="10" d="M37.2 37c1.8.4 3.3 1.2 3.7 3" style="stroke:rgb(119, 164, 189);animation-play-state:paused" ></path>
<path stroke-miterlimit="10" stroke-width="2" stroke="#849b87" fill="none" stroke-linecap="round" d="M64.7 38.5c1.7.9 2.9 2 2.8 3.8" style="stroke:rgb(132, 155, 135);animation-play-state:paused" ></path>
<metadata xmlns:d="https://loading.io/stock/" style="animation-play-state:paused" ><d:name style="animation-play-state:paused" >ice cream</d:name>
<d:tags style="animation-play-state:paused" >ice cream,ice cream cone,sundae,popsicle,dessert,food</d:tags>
<d:license style="animation-play-state:paused" >by</d:license>
<d:slug style="animation-play-state:paused" >hwifuo</d:slug></metadata></g><!-- generated by https://loading.io/ --></svg>